# xmcd
#
# Track frame offsets:
# 150
# 16026
# 30548
# 42002
# 60976
# 78603
# 92032
# 109587
# 123586
# 135748
# 147933
# 169422
#
# Disc length: 2417 seconds
#
#
# Revision: 0
# Processed by: cddbd v1.5.2PL0 Copyright (c) Steve Scherf et al.
# Submitted via: FreeRIP 2.90 
#
DISCID=97096f0c
DTITLE=Blake Shelton - Bar Light
DYEAR=2005
DGENRE=Country
TTITLE0=Austin
TTITLE1=Ol' Red
TTITLE2=Some Beach
TTITLE3=The Baby
TTITLE4=Cotton Pickin' Time
TTITLE5=Heavy Liftin'
TTITLE6=Problems at Home
TTITLE7=All Over Me
TTITLE8=The Dreamer
TTITLE9=I Drink
TTITLE10=Playboys of the Southwestern World
TTITLE11=Oklahoma Shakedown
EXTD=
EXTT0=
EXTT1=
EXTT2=
EXTT3=
EXTT4=
EXTT5=
EXTT6=
EXTT7=
EXTT8=
EXTT9=
EXTT10=
EXTT11=
PLAYORDER=
